<mxfile host="app.diagrams.net" agent="Mozilla/5.0 (Windows NT 10.0; Win64; x64) AppleWebKit/537.36 (KHTML, like Gecko) Chrome/128.0.0.0 Safari/537.36" version="24.7.14">
  <diagram name="Page-1" id="6Emp7bgmdAHp4Dj8C9RS">
    <mxGraphModel dx="882" dy="458" grid="1" gridSize="10" guides="1" tooltips="1" connect="1" arrows="1" fold="1" page="1" pageScale="1" pageWidth="827" pageHeight="1169" math="0" shadow="0">
      <root>
        <mxCell id="0" />
        <mxCell id="1" parent="0" />
        <mxCell id="y-hftIuzePqmTIb-XjIw-2" style="edgeStyle=orthogonalEdgeStyle;rounded=0;orthogonalLoop=1;jettySize=auto;html=1;exitX=0.5;exitY=1;exitDx=0;exitDy=0;" edge="1" parent="1" source="y-hftIuzePqmTIb-XjIw-1">
          <mxGeometry relative="1" as="geometry">
            <mxPoint x="427" y="100" as="targetPoint" />
          </mxGeometry>
        </mxCell>
        <mxCell id="y-hftIuzePqmTIb-XjIw-1" value="Start" style="rounded=1;whiteSpace=wrap;html=1;" vertex="1" parent="1">
          <mxGeometry x="380" y="10" width="94" height="40" as="geometry" />
        </mxCell>
        <mxCell id="y-hftIuzePqmTIb-XjIw-4" style="edgeStyle=orthogonalEdgeStyle;rounded=0;orthogonalLoop=1;jettySize=auto;html=1;exitX=1;exitY=0.5;exitDx=0;exitDy=0;" edge="1" parent="1" source="y-hftIuzePqmTIb-XjIw-3">
          <mxGeometry relative="1" as="geometry">
            <mxPoint x="620" y="155" as="targetPoint" />
          </mxGeometry>
        </mxCell>
        <mxCell id="y-hftIuzePqmTIb-XjIw-9" style="edgeStyle=orthogonalEdgeStyle;rounded=0;orthogonalLoop=1;jettySize=auto;html=1;exitX=0;exitY=0.5;exitDx=0;exitDy=0;" edge="1" parent="1" source="y-hftIuzePqmTIb-XjIw-3">
          <mxGeometry relative="1" as="geometry">
            <mxPoint x="260" y="160" as="targetPoint" />
          </mxGeometry>
        </mxCell>
        <mxCell id="y-hftIuzePqmTIb-XjIw-3" value="Is User Authenticated ?" style="rounded=1;whiteSpace=wrap;html=1;" vertex="1" parent="1">
          <mxGeometry x="357" y="100" width="140" height="40" as="geometry" />
        </mxCell>
        <mxCell id="y-hftIuzePqmTIb-XjIw-19" style="edgeStyle=orthogonalEdgeStyle;rounded=0;orthogonalLoop=1;jettySize=auto;html=1;exitX=0.25;exitY=1;exitDx=0;exitDy=0;" edge="1" parent="1">
          <mxGeometry relative="1" as="geometry">
            <mxPoint x="618.2222222222222" y="260" as="targetPoint" />
            <mxPoint x="618" y="200" as="sourcePoint" />
          </mxGeometry>
        </mxCell>
        <mxCell id="y-hftIuzePqmTIb-XjIw-7" value="Display Login page" style="rounded=1;whiteSpace=wrap;html=1;" vertex="1" parent="1">
          <mxGeometry x="560" y="160" width="120" height="40" as="geometry" />
        </mxCell>
        <mxCell id="y-hftIuzePqmTIb-XjIw-8" value="No" style="text;html=1;align=center;verticalAlign=middle;whiteSpace=wrap;rounded=0;" vertex="1" parent="1">
          <mxGeometry x="540" y="90" width="60" height="30" as="geometry" />
        </mxCell>
        <mxCell id="y-hftIuzePqmTIb-XjIw-13" style="edgeStyle=orthogonalEdgeStyle;rounded=0;orthogonalLoop=1;jettySize=auto;html=1;exitX=0.25;exitY=1;exitDx=0;exitDy=0;" edge="1" parent="1" source="y-hftIuzePqmTIb-XjIw-11">
          <mxGeometry relative="1" as="geometry">
            <mxPoint x="240.22222222222217" y="260" as="targetPoint" />
          </mxGeometry>
        </mxCell>
        <mxCell id="y-hftIuzePqmTIb-XjIw-14" style="edgeStyle=orthogonalEdgeStyle;rounded=0;orthogonalLoop=1;jettySize=auto;html=1;exitX=0.75;exitY=1;exitDx=0;exitDy=0;" edge="1" parent="1" source="y-hftIuzePqmTIb-XjIw-11">
          <mxGeometry relative="1" as="geometry">
            <mxPoint x="300.2222222222222" y="260" as="targetPoint" />
          </mxGeometry>
        </mxCell>
        <mxCell id="y-hftIuzePqmTIb-XjIw-11" value="Is internet connection present ?" style="rounded=1;whiteSpace=wrap;html=1;" vertex="1" parent="1">
          <mxGeometry x="210" y="160" width="120" height="40" as="geometry" />
        </mxCell>
        <mxCell id="y-hftIuzePqmTIb-XjIw-12" value="Yes" style="text;html=1;align=center;verticalAlign=middle;whiteSpace=wrap;rounded=0;" vertex="1" parent="1">
          <mxGeometry x="270" y="90" width="60" height="30" as="geometry" />
        </mxCell>
        <mxCell id="y-hftIuzePqmTIb-XjIw-15" value="Yes" style="text;html=1;align=center;verticalAlign=middle;whiteSpace=wrap;rounded=0;" vertex="1" parent="1">
          <mxGeometry x="180" y="210" width="60" height="30" as="geometry" />
        </mxCell>
        <mxCell id="y-hftIuzePqmTIb-XjIw-16" value="No" style="text;html=1;align=center;verticalAlign=middle;whiteSpace=wrap;rounded=0;" vertex="1" parent="1">
          <mxGeometry x="297" y="210" width="60" height="30" as="geometry" />
        </mxCell>
        <mxCell id="y-hftIuzePqmTIb-XjIw-26" style="edgeStyle=orthogonalEdgeStyle;rounded=0;orthogonalLoop=1;jettySize=auto;html=1;exitX=0.5;exitY=1;exitDx=0;exitDy=0;entryX=0;entryY=0.5;entryDx=0;entryDy=0;" edge="1" parent="1" source="y-hftIuzePqmTIb-XjIw-17" target="y-hftIuzePqmTIb-XjIw-21">
          <mxGeometry relative="1" as="geometry" />
        </mxCell>
        <mxCell id="y-hftIuzePqmTIb-XjIw-17" value="Fetch Blog from SupaBase" style="rounded=1;whiteSpace=wrap;html=1;" vertex="1" parent="1">
          <mxGeometry x="150" y="260" width="120" height="40" as="geometry" />
        </mxCell>
        <mxCell id="y-hftIuzePqmTIb-XjIw-25" style="edgeStyle=orthogonalEdgeStyle;rounded=0;orthogonalLoop=1;jettySize=auto;html=1;exitX=0.5;exitY=1;exitDx=0;exitDy=0;entryX=0.25;entryY=0;entryDx=0;entryDy=0;" edge="1" parent="1" source="y-hftIuzePqmTIb-XjIw-18" target="y-hftIuzePqmTIb-XjIw-21">
          <mxGeometry relative="1" as="geometry" />
        </mxCell>
        <mxCell id="y-hftIuzePqmTIb-XjIw-18" value="Fetch Blog from Local DB Hive" style="rounded=1;whiteSpace=wrap;html=1;" vertex="1" parent="1">
          <mxGeometry x="280" y="260" width="120" height="40" as="geometry" />
        </mxCell>
        <mxCell id="y-hftIuzePqmTIb-XjIw-23" style="edgeStyle=orthogonalEdgeStyle;rounded=0;orthogonalLoop=1;jettySize=auto;html=1;exitX=0.75;exitY=1;exitDx=0;exitDy=0;entryX=0.75;entryY=0;entryDx=0;entryDy=0;" edge="1" parent="1" source="y-hftIuzePqmTIb-XjIw-20" target="y-hftIuzePqmTIb-XjIw-22">
          <mxGeometry relative="1" as="geometry" />
        </mxCell>
        <mxCell id="y-hftIuzePqmTIb-XjIw-24" style="edgeStyle=orthogonalEdgeStyle;rounded=0;orthogonalLoop=1;jettySize=auto;html=1;exitX=0.25;exitY=1;exitDx=0;exitDy=0;entryX=0.5;entryY=0;entryDx=0;entryDy=0;" edge="1" parent="1" source="y-hftIuzePqmTIb-XjIw-20" target="y-hftIuzePqmTIb-XjIw-21">
          <mxGeometry relative="1" as="geometry" />
        </mxCell>
        <mxCell id="y-hftIuzePqmTIb-XjIw-20" value="Does user have an account ?" style="rounded=1;whiteSpace=wrap;html=1;" vertex="1" parent="1">
          <mxGeometry x="560" y="260" width="120" height="40" as="geometry" />
        </mxCell>
        <mxCell id="y-hftIuzePqmTIb-XjIw-21" value="Display Home Page" style="rounded=1;whiteSpace=wrap;html=1;" vertex="1" parent="1">
          <mxGeometry x="403" y="360" width="120" height="40" as="geometry" />
        </mxCell>
        <mxCell id="y-hftIuzePqmTIb-XjIw-22" value="Display Signup Page" style="rounded=1;whiteSpace=wrap;html=1;" vertex="1" parent="1">
          <mxGeometry x="561" y="358" width="120" height="40" as="geometry" />
        </mxCell>
        <mxCell id="y-hftIuzePqmTIb-XjIw-27" value="Yes" style="text;html=1;align=center;verticalAlign=middle;whiteSpace=wrap;rounded=0;" vertex="1" parent="1">
          <mxGeometry x="523" y="300" width="60" height="30" as="geometry" />
        </mxCell>
        <mxCell id="y-hftIuzePqmTIb-XjIw-28" value="No" style="text;html=1;align=center;verticalAlign=middle;whiteSpace=wrap;rounded=0;" vertex="1" parent="1">
          <mxGeometry x="640" y="310" width="60" height="30" as="geometry" />
        </mxCell>
        <mxCell id="y-hftIuzePqmTIb-XjIw-29" value="&lt;h1 style=&quot;margin-top: 0px;&quot;&gt;Blogging App&lt;/h1&gt;&lt;div&gt;&lt;font style=&quot;font-size: 14px;&quot;&gt;lncluding BLoC Architecture&lt;/font&gt;&lt;/div&gt;" style="text;html=1;whiteSpace=wrap;overflow=hidden;rounded=0;" vertex="1" parent="1">
          <mxGeometry x="69" y="10" width="180" height="120" as="geometry" />
        </mxCell>
      </root>
    </mxGraphModel>
  </diagram>
</mxfile>
